<svg width="145" height="40" viewBox="0 0 145 40" fill="none" xmlns="http://www.w3.org/2000/svg">
<path d="M33.374 26.2502C31.5987 25.2847 30.744 25.4914 25.6816 27.0184L20.4895 20.279C24.5374 20.3188 31.0635 19.8162 32.4374 14.7517C32.9626 12.8113 32.6371 11.0491 31.5048 9.66065C30.0051 7.82264 27.1774 6.81543 23.5389 6.81543C21.3422 6.81543 10.3109 7.04684 9.8416 7.05822L9.7797 7.17772V9.21869L16.9569 18.5434H9.7837V20.2278H17.7956H18.2609L23.9003 27.5533C17.0287 29.5943 13.7157 30.2487 12.4417 30.4516C11.9933 30.5302 11.5353 30.5475 11.0817 30.5028C9.41426 30.3131 9.41426 29.4975 9.41426 29.2073C9.41426 28.4277 10.3788 28.0692 10.4128 28.0559L9.81366 26.474C9.01486 26.7509 7.64893 27.6386 7.64893 29.2073C7.64893 29.8845 7.92651 32.0525 11.4432 32.2138C11.7624 32.2264 12.0822 32.2087 12.3977 32.1606C13.6439 31.988 17.1585 31.3431 25.0586 28.974C26.0571 30.0305 28.6651 32.4509 31.3131 32.4509C31.84 32.4527 32.3616 32.3507 32.8448 32.1512C34.1588 31.6068 34.9536 30.5692 35.0255 29.3059C35.0974 28.0427 34.4264 26.8306 33.378 26.2559L33.374 26.2502ZM11.581 8.70086C14.86 8.63258 21.8814 8.49411 23.5409 8.49411C26.6182 8.49411 28.9507 9.2737 30.109 10.6906C30.8938 11.6561 31.1074 12.9137 30.724 14.3306C29.5258 18.7445 22.7181 18.6686 19.1775 18.57L11.581 8.70086ZM32.1319 30.6072C30.5243 31.2729 28.2897 29.6682 26.9398 28.4068C31.1694 27.1398 31.4709 27.1531 32.4953 27.7107C32.9706 27.9687 33.2941 28.5984 33.2542 29.2092C33.2282 29.6455 33.0146 30.243 32.1359 30.6072" fill="#BA967D"/>
<path d="M21.0561 40C16.8916 40 12.8207 38.827 9.35799 36.6294C5.89532 34.4318 3.1965 31.3082 1.60281 27.6537C0.00912031 23.9991 -0.407858 19.9778 0.404599 16.0982C1.21705 12.2186 3.22246 8.65493 6.16722 5.85788C9.11197 3.06083 12.8638 1.15601 16.9483 0.384303C21.0328 -0.387401 25.2665 0.00866718 29.114 1.52242C32.9615 3.03617 36.25 5.59962 38.5637 8.8886C40.8774 12.1776 42.1123 16.0444 42.1123 20C42.106 25.3025 39.8855 30.3861 35.9381 34.1355C31.9907 37.8849 26.6386 39.994 21.0561 40ZM21.0561 1.76215C17.2586 1.76215 13.5463 2.83178 10.3887 4.83578C7.2311 6.83978 4.77007 9.68814 3.31679 13.0207C1.86352 16.3532 1.48328 20.0202 2.22415 23.558C2.96502 27.0958 4.79373 30.3455 7.47903 32.8961C10.1643 35.4467 13.5856 37.1837 17.3102 37.8874C21.0348 38.5911 24.8955 38.23 28.404 36.8496C31.9126 35.4692 34.9114 33.1316 37.0212 30.1324C39.131 27.1332 40.2571 23.6071 40.2571 20C40.2513 15.1647 38.2265 10.5291 34.6269 7.10999C31.0272 3.69093 26.1468 1.76767 21.0561 1.76215Z" fill="#BA967D"/>
<path d="M62.1144 13H55.5112V27H57.9383V21.9H62.1144C65.9153 21.9 68.0804 19.9767 68.0804 17.3867C68.0804 14.7967 65.9153 13 62.1144 13ZM61.8011 20.7033H57.9383V14.2033H61.8011C64.3698 14.2033 65.648 15.4383 65.648 17.3933C65.648 19.3483 64.3627 20.7033 61.8011 20.7033Z" fill="white"/>
<path d="M78.0985 13L71.5307 27H74.1684L76.0945 22.5H83.0305L84.946 27H87.582L81.0425 13H78.0985ZM76.6043 21.3L79.5661 14.3633L82.5225 21.3H76.6043Z" fill="white"/>
<path d="M120.202 13H113.598V27H116.025V21.9H120.202C124.002 21.9 126.173 19.9767 126.173 17.3867C126.173 14.7967 124.002 13 120.202 13ZM119.888 20.7033H116.025V14.2033H119.888C122.457 14.2033 123.735 15.4383 123.735 17.3933C123.735 19.3483 122.457 20.71 119.888 20.71" fill="white"/>
<path d="M100.831 21.215C100.831 21.215 100.523 21.2033 100.371 21.2033H99.9812V21.105H100.795C104.304 21.105 105.717 19.285 105.717 17.17C105.717 14.7583 103.474 13.0033 99.6979 13.0033H93.1266V27H95.5536V21.895H99.1668C100.67 21.895 103.113 21.7617 103.113 24.2817V27H105.759V24.8333C105.759 22.24 104.343 21.2217 100.838 21.2217L100.831 21.215ZM99.4837 20.69H95.5536V14.1967H99.4341C102.107 14.1967 103.247 15.53 103.247 17.3283C103.247 19.3633 102.033 20.6833 99.4837 20.6833" fill="white"/>
<path d="M142.364 27H145L138.46 13H135.516L128.949 27H131.586L133.512 22.5H140.448L142.364 27ZM134.02 21.3L136.984 14.3633L139.94 21.3H134.02Z" fill="white"/>
</svg>
